<?xml version="1.0" encoding="UTF-8"?>
<svg xmlns="http://www.w3.org/2000/svg" xmlns:xlink="http://www.w3.org/1999/xlink" width="157.06pt" height="157.06pt" viewBox="0 0 157.06 157.06">
<defs>
<g>
<g id="glyph-0-0">
<path d="M 1.78125 0.125 C 1.769531 0.15625 1.753906 0.175781 1.734375 0.1875 C 1.722656 0.195312 1.695312 0.203125 1.65625 0.203125 L 1.40625 0.203125 C 1.375 0.203125 1.347656 0.195312 1.328125 0.1875 C 1.304688 0.175781 1.289062 0.15625 1.28125 0.125 L 0.078125 -2.890625 L 0.5 -2.890625 L 1.53125 -0.125 L 2.578125 -2.890625 L 2.984375 -2.890625 Z M 1.78125 0.125 "/>
</g>
<g id="glyph-0-1">
<path d="M 3.125 -2.828125 L 3.125 -2.484375 L 0.453125 -2.484375 L 0.453125 -2.828125 Z M 3.125 -1.578125 L 3.125 -1.234375 L 0.453125 -1.234375 L 0.453125 -1.578125 Z M 3.125 -1.578125 "/>
</g>
<g id="glyph-0-2">
<path d="M 2.1875 -3.265625 L 2.21875 -4.03125 L 0.484375 -1.15625 L 2.1875 -1.15625 Z M 0.140625 -0.90625 L 0.140625 -1.140625 C 0.140625 -1.171875 0.144531 -1.195312 0.15625 -1.21875 C 0.164062 -1.25 0.175781 -1.273438 0.1875 -1.296875 L 2 -4.296875 C 2.007812 -4.316406 2.019531 -4.332031 2.03125 -4.34375 C 2.039062 -4.351562 2.0625 -4.359375 2.09375 -4.359375 L 2.453125 -4.359375 C 2.492188 -4.359375 2.519531 -4.347656 2.53125 -4.328125 C 2.550781 -4.316406 2.5625 -4.289062 2.5625 -4.25 L 2.5625 -1.15625 L 3.25 -1.15625 L 3.25 -0.796875 L 2.5625 -0.796875 L 2.5625 0.1875 L 2.1875 0.1875 L 2.1875 -0.796875 L 0.25 -0.796875 C 0.195312 -0.796875 0.164062 -0.800781 0.15625 -0.8125 C 0.144531 -0.832031 0.140625 -0.863281 0.140625 -0.90625 Z M 0.140625 -0.90625 "/>
</g>
<g id="glyph-0-3">
<path d="M 0.6875 -1.578125 L 2.703125 -1.578125 C 2.679688 -1.910156 2.582031 -2.175781 2.40625 -2.375 C 2.226562 -2.570312 1.984375 -2.671875 1.671875 -2.671875 C 1.523438 -2.671875 1.394531 -2.640625 1.28125 -2.578125 C 1.164062 -2.523438 1.066406 -2.453125 0.984375 -2.359375 C 0.898438 -2.253906 0.832031 -2.132812 0.78125 -2 C 0.726562 -1.863281 0.695312 -1.722656 0.6875 -1.578125 Z M 3.078125 -1.40625 C 3.078125 -1.351562 3.066406 -1.316406 3.046875 -1.296875 C 3.023438 -1.285156 3 -1.28125 2.96875 -1.28125 L 0.671875 -1.28125 C 0.671875 -1.09375 0.691406 -0.921875 0.734375 -0.765625 C 0.773438 -0.617188 0.84375 -0.488281 0.9375 -0.375 C 1.03125 -0.257812 1.144531 -0.171875 1.28125 -0.109375 C 1.414062 -0.046875 1.578125 -0.015625 1.765625 -0.015625 C 1.972656 -0.015625 2.15625 -0.0820312 2.3125 -0.21875 C 2.476562 -0.363281 2.585938 -0.546875 2.640625 -0.765625 L 3.046875 -0.765625 C 2.953125 -0.390625 2.789062 -0.117188 2.5625 0.046875 C 2.332031 0.210938 2.03125 0.296875 1.65625 0.296875 C 1.414062 0.296875 1.210938 0.253906 1.046875 0.171875 C 0.878906 0.0859375 0.738281 -0.03125 0.625 -0.1875 C 0.519531 -0.34375 0.4375 -0.519531 0.375 -0.71875 C 0.320312 -0.914062 0.296875 -1.125 0.296875 -1.34375 C 0.296875 -1.550781 0.320312 -1.753906 0.375 -1.953125 C 0.4375 -2.160156 0.523438 -2.335938 0.640625 -2.484375 C 0.753906 -2.640625 0.894531 -2.757812 1.0625 -2.84375 C 1.238281 -2.9375 1.441406 -2.984375 1.671875 -2.984375 C 1.921875 -2.984375 2.132812 -2.941406 2.3125 -2.859375 C 2.488281 -2.785156 2.628906 -2.679688 2.734375 -2.546875 C 2.847656 -2.398438 2.929688 -2.226562 2.984375 -2.03125 C 3.046875 -1.84375 3.078125 -1.632812 3.078125 -1.40625 Z M 3.078125 -1.40625 "/>
</g>
<g id="glyph-0-4">
<path d="M 1.96875 -4.296875 C 2.007812 -4.296875 2.035156 -4.285156 2.046875 -4.265625 C 2.066406 -4.242188 2.078125 -4.21875 2.078125 -4.1875 L 2.078125 0.1875 L 1.6875 0.1875 L 1.6875 -3.859375 C 1.539062 -3.691406 1.382812 -3.554688 1.21875 -3.453125 C 1.0625 -3.347656 0.894531 -3.257812 0.71875 -3.1875 L 0.71875 -3.578125 C 0.882812 -3.648438 1.050781 -3.75 1.21875 -3.875 C 1.382812 -4.007812 1.539062 -4.148438 1.6875 -4.296875 Z M 1.96875 -4.296875 "/>
</g>
<g id="glyph-0-5">
<path d="M 1.625 -2.25 L 1.625 -3.6875 L 1.984375 -3.6875 L 1.984375 -2.25 L 3.328125 -2.25 L 3.328125 -1.90625 L 1.984375 -1.90625 L 1.984375 -0.484375 L 1.625 -0.484375 L 1.625 -1.90625 L 0.28125 -1.90625 L 0.28125 -2.25 Z M 1.625 -2.25 "/>
</g>
<g id="glyph-0-6">
<path d="M 1.296875 -2.046875 L 1.296875 -2.234375 C 1.296875 -2.273438 1.300781 -2.300781 1.3125 -2.3125 C 1.320312 -2.320312 1.347656 -2.328125 1.390625 -2.328125 L 1.5625 -2.328125 C 1.84375 -2.335938 2.078125 -2.410156 2.265625 -2.546875 C 2.460938 -2.691406 2.566406 -2.910156 2.578125 -3.203125 C 2.578125 -3.472656 2.484375 -3.679688 2.296875 -3.828125 C 2.109375 -3.972656 1.882812 -4.046875 1.625 -4.046875 C 1.34375 -4.046875 1.117188 -3.972656 0.953125 -3.828125 C 0.785156 -3.679688 0.691406 -3.476562 0.671875 -3.21875 L 0.265625 -3.21875 C 0.273438 -3.582031 0.40625 -3.867188 0.65625 -4.078125 C 0.90625 -4.296875 1.234375 -4.40625 1.640625 -4.40625 C 1.816406 -4.40625 1.984375 -4.375 2.140625 -4.3125 C 2.304688 -4.257812 2.453125 -4.1875 2.578125 -4.09375 C 2.703125 -3.988281 2.796875 -3.859375 2.859375 -3.703125 C 2.929688 -3.554688 2.96875 -3.382812 2.96875 -3.1875 C 2.96875 -2.945312 2.894531 -2.726562 2.75 -2.53125 C 2.601562 -2.34375 2.359375 -2.210938 2.015625 -2.140625 C 2.367188 -2.097656 2.632812 -1.96875 2.8125 -1.75 C 2.988281 -1.53125 3.078125 -1.273438 3.078125 -0.984375 C 3.078125 -0.765625 3.035156 -0.570312 2.953125 -0.40625 C 2.867188 -0.25 2.757812 -0.117188 2.625 -0.015625 C 2.488281 0.0859375 2.332031 0.164062 2.15625 0.21875 C 1.976562 0.269531 1.796875 0.296875 1.609375 0.296875 C 1.179688 0.296875 0.84375 0.1875 0.59375 -0.03125 C 0.34375 -0.257812 0.210938 -0.566406 0.203125 -0.953125 L 0.609375 -0.953125 C 0.628906 -0.671875 0.726562 -0.445312 0.90625 -0.28125 C 1.082031 -0.125 1.328125 -0.046875 1.640625 -0.046875 C 1.953125 -0.046875 2.203125 -0.132812 2.390625 -0.3125 C 2.578125 -0.488281 2.671875 -0.726562 2.671875 -1.03125 C 2.671875 -1.1875 2.640625 -1.320312 2.578125 -1.4375 C 2.515625 -1.550781 2.429688 -1.644531 2.328125 -1.71875 C 2.234375 -1.789062 2.117188 -1.847656 1.984375 -1.890625 C 1.859375 -1.929688 1.734375 -1.957031 1.609375 -1.96875 L 1.390625 -1.96875 C 1.347656 -1.96875 1.320312 -1.972656 1.3125 -1.984375 C 1.300781 -1.992188 1.296875 -2.015625 1.296875 -2.046875 Z M 1.296875 -2.046875 "/>
</g>
<g id="glyph-0-7">
<path d="M 0.3125 0.078125 L 0.3125 -0.203125 C 0.382812 -0.265625 0.46875 -0.347656 0.5625 -0.453125 C 0.664062 -0.554688 0.773438 -0.664062 0.890625 -0.78125 C 1.015625 -0.90625 1.140625 -1.035156 1.265625 -1.171875 C 1.390625 -1.316406 1.515625 -1.460938 1.640625 -1.609375 C 1.753906 -1.742188 1.863281 -1.882812 1.96875 -2.03125 C 2.082031 -2.175781 2.179688 -2.320312 2.265625 -2.46875 C 2.335938 -2.601562 2.398438 -2.734375 2.453125 -2.859375 C 2.503906 -2.984375 2.53125 -3.09375 2.53125 -3.1875 C 2.53125 -3.46875 2.441406 -3.6875 2.265625 -3.84375 C 2.085938 -4 1.867188 -4.078125 1.609375 -4.078125 C 1.484375 -4.078125 1.367188 -4.050781 1.265625 -4 C 1.160156 -3.945312 1.070312 -3.878906 1 -3.796875 C 0.914062 -3.710938 0.851562 -3.613281 0.8125 -3.5 C 0.769531 -3.394531 0.75 -3.28125 0.75 -3.15625 L 0.34375 -3.15625 C 0.34375 -3.34375 0.375 -3.507812 0.4375 -3.65625 C 0.5 -3.8125 0.59375 -3.941406 0.71875 -4.046875 C 0.832031 -4.160156 0.96875 -4.25 1.125 -4.3125 C 1.28125 -4.375 1.453125 -4.40625 1.640625 -4.40625 C 2.003906 -4.40625 2.304688 -4.304688 2.546875 -4.109375 C 2.796875 -3.910156 2.921875 -3.613281 2.921875 -3.21875 C 2.921875 -2.957031 2.835938 -2.6875 2.671875 -2.40625 C 2.515625 -2.125 2.320312 -1.847656 2.09375 -1.578125 C 1.863281 -1.296875 1.617188 -1.03125 1.359375 -0.78125 C 1.109375 -0.539062 0.894531 -0.332031 0.71875 -0.15625 L 3.015625 -0.15625 L 3.015625 0.1875 L 0.421875 0.1875 C 0.378906 0.1875 0.347656 0.179688 0.328125 0.171875 C 0.316406 0.160156 0.3125 0.128906 0.3125 0.078125 Z M 0.3125 0.078125 "/>
</g>
</g>
<clipPath id="clip-0">
<path clip-rule="nonzero" d="M 1.980469 1.984375 L 3 1.984375 L 3 154.144531 L 1.980469 154.144531 Z M 1.980469 1.984375 "/>
</clipPath>
<clipPath id="clip-1">
<path clip-rule="nonzero" d="M 27 1.984375 L 28 1.984375 L 28 154.144531 L 27 154.144531 Z M 27 1.984375 "/>
</clipPath>
<clipPath id="clip-2">
<path clip-rule="nonzero" d="M 52 1.984375 L 53 1.984375 L 53 154.144531 L 52 154.144531 Z M 52 1.984375 "/>
</clipPath>
<clipPath id="clip-3">
<path clip-rule="nonzero" d="M 77 1.984375 L 79 1.984375 L 79 154.144531 L 77 154.144531 Z M 77 1.984375 "/>
</clipPath>
<clipPath id="clip-4">
<path clip-rule="nonzero" d="M 103 1.984375 L 104 1.984375 L 104 154.144531 L 103 154.144531 Z M 103 1.984375 "/>
</clipPath>
<clipPath id="clip-5">
<path clip-rule="nonzero" d="M 128 1.984375 L 129 1.984375 L 129 154.144531 L 128 154.144531 Z M 128 1.984375 "/>
</clipPath>
<clipPath id="clip-6">
<path clip-rule="nonzero" d="M 153 1.984375 L 154.140625 1.984375 L 154.140625 154.144531 L 153 154.144531 Z M 153 1.984375 "/>
</clipPath>
<clipPath id="clip-7">
<path clip-rule="nonzero" d="M 1.980469 153 L 154.140625 153 L 154.140625 154.144531 L 1.980469 154.144531 Z M 1.980469 153 "/>
</clipPath>
<clipPath id="clip-8">
<path clip-rule="nonzero" d="M 1.980469 128 L 154.140625 128 L 154.140625 129 L 1.980469 129 Z M 1.980469 128 "/>
</clipPath>
<clipPath id="clip-9">
<path clip-rule="nonzero" d="M 1.980469 103 L 154.140625 103 L 154.140625 104 L 1.980469 104 Z M 1.980469 103 "/>
</clipPath>
<clipPath id="clip-10">
<path clip-rule="nonzero" d="M 1.980469 77 L 154.140625 77 L 154.140625 79 L 1.980469 79 Z M 1.980469 77 "/>
</clipPath>
<clipPath id="clip-11">
<path clip-rule="nonzero" d="M 1.980469 52 L 154.140625 52 L 154.140625 53 L 1.980469 53 Z M 1.980469 52 "/>
</clipPath>
<clipPath id="clip-12">
<path clip-rule="nonzero" d="M 1.980469 27 L 154.140625 27 L 154.140625 28 L 1.980469 28 Z M 1.980469 27 "/>
</clipPath>
<clipPath id="clip-13">
<path clip-rule="nonzero" d="M 1.980469 1.984375 L 154.140625 1.984375 L 154.140625 3 L 1.980469 3 Z M 1.980469 1.984375 "/>
</clipPath>
<clipPath id="clip-14">
<path clip-rule="nonzero" d="M 1.980469 128 L 154.140625 128 L 154.140625 130 L 1.980469 130 Z M 1.980469 128 "/>
</clipPath>
<clipPath id="clip-15">
<path clip-rule="nonzero" d="M 26 1.984375 L 28 1.984375 L 28 154.144531 L 26 154.144531 Z M 26 1.984375 "/>
</clipPath>
</defs>
<g clip-path="url(#clip-0)">
<path fill="none" stroke-width="0.29887" stroke-linecap="round" stroke-linejoin="round" stroke="rgb(82.699585%, 82.699585%, 82.699585%)" stroke-opacity="0.6" stroke-miterlimit="10" d="M -76.535678 -76.535082 L -76.535678 76.535749 " transform="matrix(0.994051, 0, 0, -0.994051, 78.060808, 78.064784)"/>
</g>
<g clip-path="url(#clip-1)">
<path fill="none" stroke-width="0.29887" stroke-linecap="round" stroke-linejoin="round" stroke="rgb(82.699585%, 82.699585%, 82.699585%)" stroke-opacity="0.6" stroke-miterlimit="10" d="M -51.024528 -76.535082 L -51.024528 76.535749 " transform="matrix(0.994051, 0, 0, -0.994051, 78.060808, 78.064784)"/>
</g>
<g clip-path="url(#clip-2)">
<path fill="none" stroke-width="0.29887" stroke-linecap="round" stroke-linejoin="round" stroke="rgb(82.699585%, 82.699585%, 82.699585%)" stroke-opacity="0.6" stroke-miterlimit="10" d="M -25.513378 -76.535082 L -25.513378 76.535749 " transform="matrix(0.994051, 0, 0, -0.994051, 78.060808, 78.064784)"/>
</g>
<g clip-path="url(#clip-3)">
<path fill="none" stroke-width="0.29887" stroke-linecap="round" stroke-linejoin="round" stroke="rgb(82.699585%, 82.699585%, 82.699585%)" stroke-opacity="0.6" stroke-miterlimit="10" d="M 0.00170202 -76.535082 L 0.00170202 76.535749 " transform="matrix(0.994051, 0, 0, -0.994051, 78.060808, 78.064784)"/>
</g>
<g clip-path="url(#clip-4)">
<path fill="none" stroke-width="0.29887" stroke-linecap="round" stroke-linejoin="round" stroke="rgb(82.699585%, 82.699585%, 82.699585%)" stroke-opacity="0.6" stroke-miterlimit="10" d="M 25.512852 -76.535082 L 25.512852 76.535749 " transform="matrix(0.994051, 0, 0, -0.994051, 78.060808, 78.064784)"/>
</g>
<g clip-path="url(#clip-5)">
<path fill="none" stroke-width="0.29887" stroke-linecap="round" stroke-linejoin="round" stroke="rgb(82.699585%, 82.699585%, 82.699585%)" stroke-opacity="0.6" stroke-miterlimit="10" d="M 51.024002 -76.535082 L 51.024002 76.535749 " transform="matrix(0.994051, 0, 0, -0.994051, 78.060808, 78.064784)"/>
</g>
<g clip-path="url(#clip-6)">
<path fill="none" stroke-width="0.29887" stroke-linecap="round" stroke-linejoin="round" stroke="rgb(82.699585%, 82.699585%, 82.699585%)" stroke-opacity="0.6" stroke-miterlimit="10" d="M 76.535153 -76.535082 L 76.535153 76.535749 " transform="matrix(0.994051, 0, 0, -0.994051, 78.060808, 78.064784)"/>
</g>
<g clip-path="url(#clip-7)">
<path fill="none" stroke-width="0.29887" stroke-linecap="round" stroke-linejoin="round" stroke="rgb(82.699585%, 82.699585%, 82.699585%)" stroke-opacity="0.6" stroke-miterlimit="10" d="M -76.535678 -76.535082 L 76.535153 -76.535082 " transform="matrix(0.994051, 0, 0, -0.994051, 78.060808, 78.064784)"/>
</g>
<g clip-path="url(#clip-8)">
<path fill="none" stroke-width="0.29887" stroke-linecap="round" stroke-linejoin="round" stroke="rgb(82.699585%, 82.699585%, 82.699585%)" stroke-opacity="0.6" stroke-miterlimit="10" d="M -76.535678 -51.023932 L 76.535153 -51.023932 " transform="matrix(0.994051, 0, 0, -0.994051, 78.060808, 78.064784)"/>
</g>
<g clip-path="url(#clip-9)">
<path fill="none" stroke-width="0.29887" stroke-linecap="round" stroke-linejoin="round" stroke="rgb(82.699585%, 82.699585%, 82.699585%)" stroke-opacity="0.6" stroke-miterlimit="10" d="M -76.535678 -25.512782 L 76.535153 -25.512782 " transform="matrix(0.994051, 0, 0, -0.994051, 78.060808, 78.064784)"/>
</g>
<g clip-path="url(#clip-10)">
<path fill="none" stroke-width="0.29887" stroke-linecap="round" stroke-linejoin="round" stroke="rgb(82.699585%, 82.699585%, 82.699585%)" stroke-opacity="0.6" stroke-miterlimit="10" d="M -76.535678 -0.00163165 L 76.535153 -0.00163165 " transform="matrix(0.994051, 0, 0, -0.994051, 78.060808, 78.064784)"/>
</g>
<g clip-path="url(#clip-11)">
<path fill="none" stroke-width="0.29887" stroke-linecap="round" stroke-linejoin="round" stroke="rgb(82.699585%, 82.699585%, 82.699585%)" stroke-opacity="0.6" stroke-miterlimit="10" d="M -76.535678 25.513448 L 76.535153 25.513448 " transform="matrix(0.994051, 0, 0, -0.994051, 78.060808, 78.064784)"/>
</g>
<g clip-path="url(#clip-12)">
<path fill="none" stroke-width="0.29887" stroke-linecap="round" stroke-linejoin="round" stroke="rgb(82.699585%, 82.699585%, 82.699585%)" stroke-opacity="0.6" stroke-miterlimit="10" d="M -76.535678 51.024598 L 76.535153 51.024598 " transform="matrix(0.994051, 0, 0, -0.994051, 78.060808, 78.064784)"/>
</g>
<g clip-path="url(#clip-13)">
<path fill="none" stroke-width="0.29887" stroke-linecap="round" stroke-linejoin="round" stroke="rgb(82.699585%, 82.699585%, 82.699585%)" stroke-opacity="0.6" stroke-miterlimit="10" d="M -76.535678 76.535749 L 76.535153 76.535749 " transform="matrix(0.994051, 0, 0, -0.994051, 78.060808, 78.064784)"/>
</g>
<g clip-path="url(#clip-14)">
<path fill="none" stroke-width="0.89664" stroke-linecap="round" stroke-linejoin="round" stroke="rgb(50.19989%, 50.19989%, 50.19989%)" stroke-opacity="0.5" stroke-miterlimit="10" d="M -76.535678 -51.023932 L 76.535153 -51.023932 " transform="matrix(0.994051, 0, 0, -0.994051, 78.060808, 78.064784)"/>
</g>
<g clip-path="url(#clip-15)">
<path fill="none" stroke-width="0.89664" stroke-linecap="round" stroke-linejoin="round" stroke="rgb(50.19989%, 50.19989%, 50.19989%)" stroke-opacity="0.5" stroke-miterlimit="10" d="M -51.024528 -76.535082 L -51.024528 76.535749 " transform="matrix(0.994051, 0, 0, -0.994051, 78.060808, 78.064784)"/>
</g>
<path fill="none" stroke-width="1.19553" stroke-linecap="round" stroke-linejoin="round" stroke="rgb(86.299133%, 7.798767%, 23.498535%)" stroke-opacity="1" stroke-miterlimit="10" d="M -51.024528 -51.023932 L -28.602066 -51.023932 " transform="matrix(0.994051, 0, 0, -0.994051, 78.060808, 78.064784)"/>
<path fill-rule="nonzero" fill="rgb(86.299133%, 7.798767%, 23.498535%)" fill-opacity="1" stroke-width="0.86104" stroke-linecap="round" stroke-linejoin="miter" stroke="rgb(86.299133%, 7.798767%, 23.498535%)" stroke-opacity="1" stroke-miterlimit="10" d="M 3.874938 0.000387952 L 1.391413 0.947428 L 2.228424 0.000387952 L 1.391413 -0.946653 Z M 3.874938 0.000387952 " transform="matrix(0.994051, 0, 0, -0.994051, 47.628584, 128.785542)"/>
<path fill="none" stroke-width="1.19553" stroke-linecap="round" stroke-linejoin="round" stroke="rgb(86.299133%, 7.798767%, 23.498535%)" stroke-opacity="1" stroke-miterlimit="10" d="M -25.513378 -51.023932 L -3.090916 -51.023932 " transform="matrix(0.994051, 0, 0, -0.994051, 78.060808, 78.064784)"/>
<path fill-rule="nonzero" fill="rgb(86.299133%, 7.798767%, 23.498535%)" fill-opacity="1" stroke-width="0.86104" stroke-linecap="round" stroke-linejoin="miter" stroke="rgb(86.299133%, 7.798767%, 23.498535%)" stroke-opacity="1" stroke-miterlimit="10" d="M 3.878078 0.000387952 L 1.390623 0.947428 L 2.227634 0.000387952 L 1.390623 -0.946653 Z M 3.878078 0.000387952 " transform="matrix(0.994051, 0, 0, -0.994051, 72.988744, 128.785542)"/>
<path fill="none" stroke-width="1.19553" stroke-linecap="round" stroke-linejoin="round" stroke="rgb(86.299133%, 7.798767%, 23.498535%)" stroke-opacity="1" stroke-miterlimit="10" d="M 0.00170202 -51.023932 L 22.424164 -51.023932 " transform="matrix(0.994051, 0, 0, -0.994051, 78.060808, 78.064784)"/>
<path fill-rule="nonzero" fill="rgb(86.299133%, 7.798767%, 23.498535%)" fill-opacity="1" stroke-width="0.86104" stroke-linecap="round" stroke-linejoin="miter" stroke="rgb(86.299133%, 7.798767%, 23.498535%)" stroke-opacity="1" stroke-miterlimit="10" d="M 3.877288 0.000387952 L 1.389833 0.947428 L 2.226844 0.000387952 L 1.389833 -0.946653 Z M 3.877288 0.000387952 " transform="matrix(0.994051, 0, 0, -0.994051, 98.348904, 128.785542)"/>
<path fill="none" stroke-width="1.19553" stroke-linecap="round" stroke-linejoin="round" stroke="rgb(86.299133%, 7.798767%, 23.498535%)" stroke-opacity="1" stroke-miterlimit="10" d="M 25.512852 -51.023932 L 47.935314 -51.023932 " transform="matrix(0.994051, 0, 0, -0.994051, 78.060808, 78.064784)"/>
<path fill-rule="nonzero" fill="rgb(86.299133%, 7.798767%, 23.498535%)" fill-opacity="1" stroke-width="0.86104" stroke-linecap="round" stroke-linejoin="miter" stroke="rgb(86.299133%, 7.798767%, 23.498535%)" stroke-opacity="1" stroke-miterlimit="10" d="M 3.876058 0.000387952 L 1.388603 0.947428 L 2.229544 0.000387952 L 1.388603 -0.946653 Z M 3.876058 0.000387952 " transform="matrix(0.994051, 0, 0, -0.994051, 123.709502, 128.785542)"/>
<path fill="none" stroke-width="1.19553" stroke-linecap="round" stroke-linejoin="round" stroke="rgb(25.498962%, 41.19873%, 88.198853%)" stroke-opacity="1" stroke-miterlimit="10" d="M 51.024002 -51.023932 L 51.024002 -28.60147 " transform="matrix(0.994051, 0, 0, -0.994051, 78.060808, 78.064784)"/>
<path fill-rule="nonzero" fill="rgb(25.498962%, 41.19873%, 88.198853%)" fill-opacity="1" stroke-width="0.86104" stroke-linecap="round" stroke-linejoin="miter" stroke="rgb(25.498962%, 41.19873%, 88.198853%)" stroke-opacity="1" stroke-miterlimit="10" d="M 3.875534 0.000317581 L 1.392009 0.947358 L 2.229019 0.000317581 L 1.392009 -0.946723 Z M 3.875534 0.000317581 " transform="matrix(0, -0.994051, -0.994051, 0, 128.781566, 108.497008)"/>
<path fill="none" stroke-width="1.19553" stroke-linecap="round" stroke-linejoin="round" stroke="rgb(25.498962%, 41.19873%, 88.198853%)" stroke-opacity="1" stroke-miterlimit="10" d="M 51.024002 -25.512782 L 51.024002 -3.09032 " transform="matrix(0.994051, 0, 0, -0.994051, 78.060808, 78.064784)"/>
<path fill-rule="nonzero" fill="rgb(25.498962%, 41.19873%, 88.198853%)" fill-opacity="1" stroke-width="0.86104" stroke-linecap="round" stroke-linejoin="miter" stroke="rgb(25.498962%, 41.19873%, 88.198853%)" stroke-opacity="1" stroke-miterlimit="10" d="M 3.874744 0.000317581 L 1.391219 0.947358 L 2.22823 0.000317581 L 1.391219 -0.946723 Z M 3.874744 0.000317581 " transform="matrix(0, -0.994051, -0.994051, 0, 128.781566, 83.136848)"/>
<path fill="none" stroke-width="1.19553" stroke-linecap="round" stroke-linejoin="round" stroke="rgb(25.498962%, 41.19873%, 88.198853%)" stroke-opacity="1" stroke-miterlimit="10" d="M 51.024002 -0.00163165 L 51.024002 22.42083 " transform="matrix(0.994051, 0, 0, -0.994051, 78.060808, 78.064784)"/>
<path fill-rule="nonzero" fill="rgb(25.498962%, 41.19873%, 88.198853%)" fill-opacity="1" stroke-width="0.86104" stroke-linecap="round" stroke-linejoin="miter" stroke="rgb(25.498962%, 41.19873%, 88.198853%)" stroke-opacity="1" stroke-miterlimit="10" d="M 3.877884 0.000317581 L 1.390429 0.947358 L 2.22744 0.000317581 L 1.390429 -0.946723 Z M 3.877884 0.000317581 " transform="matrix(0, -0.994051, -0.994051, 0, 128.781566, 57.776688)"/>
<path fill="none" stroke-width="1.19553" stroke-linecap="round" stroke-linejoin="round" stroke="rgb(17.999268%, 54.499817%, 34.098816%)" stroke-opacity="1" stroke-miterlimit="10" d="M -51.024528 -51.023932 L 48.552266 23.658663 " transform="matrix(0.994051, 0, 0, -0.994051, 78.060808, 78.064784)"/>
<path fill-rule="nonzero" fill="rgb(17.999268%, 54.499817%, 34.098816%)" fill-opacity="1" stroke-width="0.86104" stroke-linecap="round" stroke-linejoin="miter" stroke="rgb(17.999268%, 54.499817%, 34.098816%)" stroke-opacity="1" stroke-miterlimit="10" d="M 3.873849 -0.000153508 L 1.389473 0.944582 L 2.228857 0.000648892 L 1.39024 -0.947198 Z M 3.873849 -0.000153508 " transform="matrix(0.795211, -0.59642, -0.59642, -0.795211, 124.72407, 55.747821)"/>
<path fill-rule="nonzero" fill="rgb(100%, 100%, 100%)" fill-opacity="0.72" d="M 58.394531 93.792969 L 97.726562 93.792969 L 97.726562 87.695312 L 58.394531 87.695312 Z M 58.394531 93.792969 "/>
<g fill="rgb(17.999268%, 54.499817%, 34.098816%)" fill-opacity="1">
<use xlink:href="#glyph-0-0" x="59.088358" y="92.794627"/>
</g>
<g fill="rgb(17.999268%, 54.499817%, 34.098816%)" fill-opacity="1">
<use xlink:href="#glyph-0-1" x="63.926045" y="92.794627"/>
</g>
<g fill="rgb(17.999268%, 54.499817%, 34.098816%)" fill-opacity="1">
<use xlink:href="#glyph-0-2" x="69.294475" y="92.794627"/>
<use xlink:href="#glyph-0-3" x="72.729051" y="92.794627"/>
<use xlink:href="#glyph-0-4" x="76.157525" y="92.794627"/>
</g>
<g fill="rgb(17.999268%, 54.499817%, 34.098816%)" fill-opacity="1">
<use xlink:href="#glyph-0-5" x="81.361242" y="92.794627"/>
</g>
<g fill="rgb(17.999268%, 54.499817%, 34.098816%)" fill-opacity="1">
<use xlink:href="#glyph-0-6" x="86.729672" y="92.794627"/>
<use xlink:href="#glyph-0-3" x="90.164247" y="92.794627"/>
<use xlink:href="#glyph-0-7" x="93.592722" y="92.794627"/>
</g>
</svg>
